<svg width="20" height="20" viewBox="0 0 20 20" fill="none"
  xmlns="http://www.w3.org/2000/svg">
  <path d="M10 0.249756C4.62391 0.249756 0.25 4.62366 0.25 9.99975C0.25 15.3758 4.62391 19.7498 10 19.7498C15.3761 19.7498 19.75 15.3758 19.75 9.99975C19.75 4.62366 15.3761 0.249756 10 0.249756ZM15.0742 6.7321L8.77422 14.2321C8.70511 14.3144 8.61912 14.3809 8.52207 14.4271C8.42502 14.4733 8.31918 14.498 8.21172 14.4998H8.19906C8.09394 14.4997 7.99 14.4776 7.89398 14.4348C7.79797 14.392 7.71202 14.3295 7.64172 14.2513L4.94172 11.2513C4.87315 11.1786 4.81981 11.0929 4.78483 10.9993C4.74985 10.9056 4.73395 10.8059 4.73805 10.7061C4.74215 10.6062 4.76617 10.5081 4.8087 10.4177C4.85123 10.3272 4.91142 10.2462 4.98572 10.1793C5.06002 10.1125 5.14694 10.0611 5.24136 10.0283C5.33578 9.99553 5.43581 9.98195 5.53556 9.98836C5.63531 9.99478 5.73277 10.0211 5.82222 10.0657C5.91166 10.1103 5.99128 10.1724 6.05641 10.2482L8.17937 12.6069L13.9258 5.76741C14.0547 5.61839 14.237 5.52607 14.4335 5.51042C14.6299 5.49477 14.8246 5.55704 14.9754 5.68377C15.1263 5.8105 15.2212 5.99152 15.2397 6.18768C15.2582 6.38385 15.1988 6.57941 15.0742 6.7321Z" fill="#56B82C"/>
</svg>
