<svg width="12" height="13" viewBox="0 0 12 13" fill="none"
  xmlns="http://www.w3.org/2000/svg">
  <path d="M5.99954 4.625C5.6287 4.625 5.26619 4.73497 4.95785 4.94099C4.64951 5.14702 4.40918 5.43986 4.26727 5.78247C4.12535 6.12508 4.08822 6.50208 4.16057 6.86579C4.23292 7.22951 4.41149 7.5636 4.67372 7.82582C4.93594 8.08805 5.27003 8.26662 5.63375 8.33897C5.99746 8.41132 6.37446 8.37419 6.71707 8.23227C7.05969 8.09036 7.35252 7.85003 7.55855 7.54169C7.76458 7.23335 7.87454 6.87084 7.87454 6.5C7.87306 6.00317 7.67504 5.52712 7.32373 5.17581C6.97242 4.8245 6.49637 4.62648 5.99954 4.625ZM10.0477 6.5C10.0467 6.6752 10.0338 6.85013 10.0092 7.02359L11.1504 7.91703C11.2001 7.95807 11.2336 8.01544 11.2449 8.0789C11.2562 8.14236 11.2445 8.20777 11.212 8.26343L10.1325 10.1272C10.0997 10.1824 10.0485 10.2242 9.98785 10.2453C9.92724 10.2665 9.86111 10.2655 9.8011 10.2427L8.45931 9.70367C8.1799 9.91882 7.87415 10.0974 7.54946 10.235L7.34884 11.6595C7.33761 11.7233 7.30457 11.7813 7.25537 11.8234C7.20616 11.8656 7.14385 11.8893 7.07907 11.8906H4.92001C4.85641 11.8894 4.79511 11.8666 4.74612 11.8261C4.69712 11.7855 4.66333 11.7295 4.65025 11.6673L4.44962 10.2427C4.12404 10.1067 3.81807 9.92787 3.53978 9.71093L2.19798 10.25C2.138 10.2728 2.07189 10.2738 2.01128 10.2527C1.95067 10.2316 1.89943 10.1898 1.86658 10.1347L0.787045 8.27117C0.754551 8.2155 0.74291 8.1501 0.754202 8.08664C0.765494 8.02318 0.798983 7.9658 0.848686 7.92476L1.98986 7.03133C1.96552 6.85524 1.95268 6.67775 1.95142 6.5C1.95239 6.3248 1.96524 6.14987 1.98986 5.9764L0.848686 5.08297C0.798983 5.04193 0.765494 4.98455 0.754202 4.92109C0.74291 4.85763 0.754551 4.79223 0.787045 4.73656L1.86658 2.87281C1.89939 2.81764 1.95061 2.77581 2.01123 2.75467C2.07185 2.73354 2.13798 2.73446 2.19798 2.75727L3.53978 3.29633C3.81918 3.08117 4.12494 2.90262 4.44962 2.765L4.65025 1.34047C4.66147 1.27666 4.69451 1.21873 4.74372 1.17658C4.79292 1.13443 4.85524 1.11068 4.92001 1.10938H7.07907C7.14267 1.11061 7.20397 1.13337 7.25297 1.17394C7.30196 1.21451 7.33576 1.27048 7.34884 1.33273L7.54946 2.75727C7.87545 2.8932 8.18183 3.07204 8.46048 3.28906L9.8011 2.75C9.86108 2.72717 9.92719 2.72622 9.98781 2.74731C10.0484 2.7684 10.0997 2.81018 10.1325 2.86531L11.212 4.72906C11.2445 4.78473 11.2562 4.85013 11.2449 4.91359C11.2336 4.97705 11.2001 5.03443 11.1504 5.07547L10.0092 5.9689C10.0336 6.14491 10.0464 6.32232 10.0477 6.5Z" fill="white"/>
</svg>
