<svg width="23" height="23" viewBox="0 0 23 23" fill="none"
  xmlns="http://www.w3.org/2000/svg">
  <g clip-path="url(#clip0_104_1910)">
    <path d="M6.47052 7.62547C6.35376 7.62548 6.23839 7.6509 6.13243 7.69994C6.02647 7.74899 5.93244 7.82051 5.85688 7.90952L0.190832 14.583C-0.253068 15.1062 0.118842 15.9094 0.804932 15.9092L22.1949 15.8942C22.8806 15.8937 23.2518 15.091 22.8081 14.5683L18.1412 9.07125L17.0533 10.2774L20.4557 14.2854L2.54488 14.2975L6.84266 9.23524H10.5128C10.6089 8.94314 10.694 8.65173 10.7382 8.36239C10.8928 8.10928 11.0589 7.86331 11.2359 7.62524L6.47052 7.62547ZM20.6788 17.0454L18.5678 17.0472L20.4564 19.2713L2.54511 19.2835L4.43571 17.0566L2.32247 17.0585L0.190832 19.5685C-0.253068 20.0915 0.118842 20.8949 0.804932 20.8946L22.1949 20.8797C22.8806 20.8792 23.2518 20.0765 22.8081 19.5537L20.6788 17.0454Z" fill="#F2942C"/>
    <path d="M20.7821 0.200663C20.6537 0.0723333 20.4796 0.000244141 20.2981 0.000244141C20.1166 0.000244141 19.9425 0.0723333 19.8141 0.200663L11.8078 8.20696C11.7411 8.27366 11.6909 8.35094 11.6576 8.43351L10.5639 12.2568C10.5138 12.4148 10.5908 12.4822 10.7613 12.43L14.5657 11.3416C14.6483 11.3083 14.7255 11.2584 14.7922 11.1914L22.7985 3.18514C22.9269 3.05674 22.9991 2.88258 22.9991 2.70099C22.9991 2.5194 22.9269 2.34525 22.7985 2.21684L20.7821 0.200663ZM19.0397 2.91144L20.0878 3.95955L14.3083 9.73945L13.26 8.69088L19.0397 2.91144Z" fill="#F2942C"/>
  </g>
  <defs>
    <clipPath id="clip0_104_1910">
      <rect width="23" height="23" fill="white"/>
    </clipPath>
  </defs>
</svg>
