<svg width="12" height="13" viewBox="0 0 12 13" fill="none"
  xmlns="http://www.w3.org/2000/svg">
  <path d="M10.3143 8.4992C10.2754 8.45233 10.2372 8.40545 10.1997 8.36022C9.68408 7.73655 9.37213 7.36014 9.37213 5.5946C9.37213 4.68054 9.15346 3.93054 8.72244 3.36804C8.40463 2.95249 7.97502 2.63726 7.40877 2.40429C7.40149 2.40023 7.39498 2.39492 7.38955 2.38858C7.18588 1.70655 6.62854 1.24976 5.99995 1.24976C5.37135 1.24976 4.81424 1.70655 4.61057 2.38788C4.60514 2.39398 4.59872 2.39913 4.59159 2.40311C3.27018 2.9471 2.62799 3.99077 2.62799 5.59389C2.62799 7.36014 2.31651 7.73655 1.80042 8.35952C1.76292 8.40475 1.72471 8.45069 1.68581 8.4985C1.58531 8.6197 1.52163 8.76716 1.50232 8.92342C1.483 9.07967 1.50886 9.2382 1.57682 9.38022C1.72143 9.68491 2.02963 9.87405 2.38143 9.87405H9.62104C9.97119 9.87405 10.2773 9.68514 10.4224 9.38186C10.4906 9.2398 10.5167 9.08115 10.4976 8.92471C10.4784 8.76827 10.4148 8.6206 10.3143 8.4992Z" fill="white"/>
  <path d="M5.99947 11.75C6.33815 11.7497 6.67044 11.6578 6.9611 11.4839C7.25176 11.3101 7.48995 11.0608 7.65041 10.7626C7.65796 10.7483 7.6617 10.7323 7.66124 10.7161C7.66079 10.7 7.65616 10.6842 7.64781 10.6703C7.63946 10.6565 7.62767 10.645 7.61359 10.6371C7.5995 10.6292 7.58361 10.625 7.56744 10.625H4.43197C4.41578 10.6249 4.39985 10.6291 4.38574 10.637C4.37162 10.6449 4.3598 10.6564 4.35142 10.6702C4.34304 10.6841 4.33839 10.6999 4.33793 10.7161C4.33746 10.7322 4.3412 10.7483 4.34877 10.7626C4.5092 11.0608 4.74736 11.31 5.03797 11.4839C5.32859 11.6577 5.66083 11.7497 5.99947 11.75Z" fill="white"/>
</svg>
