<svg width="606" height="800" viewBox="0 0 606 800" fill="none" xmlns="http://www.w3.org/2000/svg">
<path d="M42.8568 0H406.992L600 224.301V750C600 777.625 580.801 800 557.143 800H42.8568C19.199 800 0 777.625 0 750V49.9995C0 22.3755 19.2012 0 42.8568 0Z" fill="#413DFA"/>
<path d="M606 224H455.25C431.375 224 412 201.651 412 174.112V0L606 224Z" fill="#0F22CF"/>
<path d="M68.6676 716.852C66.0398 716.852 63.7848 715.911 61.9027 714.029C60.0206 712.147 59.0795 709.892 59.0795 707.264C59.0795 704.636 60.0206 702.381 61.9027 700.499C63.7848 698.617 66.0398 697.676 68.6676 697.676C71.2955 697.676 73.5504 698.617 75.4325 700.499C77.3146 702.381 78.2557 704.636 78.2557 707.264C78.2557 709.004 77.8118 710.602 76.924 712.058C76.0717 713.514 74.9176 714.686 73.4616 715.574C72.0412 716.426 70.4432 716.852 68.6676 716.852ZM115.729 606.909V716H102.519V606.909H115.729ZM228.722 606.909V716H215.938L156.492 630.347H155.426V716H142.216V606.909H155L214.659 692.776H215.725V606.909H228.722ZM255.156 716V606.909H268.366V704.281H319.076V716H255.156ZM352.741 606.909V716H339.531V606.909H352.741ZM373.262 618.628V606.909H455.08V618.628H420.776V716H407.566V618.628H373.262ZM475.468 716V606.909H541.306V618.628H488.678V655.489H537.897V667.207H488.678V704.281H542.158V716H475.468Z" fill="white"/>
</svg>
