<svg width="600" height="800" viewBox="0 0 600 800" fill="none" xmlns="http://www.w3.org/2000/svg">
<path d="M42.8568 0H406.992L600 224.301V750C600 777.625 580.801 800 557.143 800H42.8568C19.199 800 0 777.625 0 750V49.9995C0 22.3755 19.2012 0 42.8568 0Z" fill="#E2574C"/>
<path d="M600 224H449.25C425.375 224 406 201.651 406 174.112V0L600 224Z" fill="#B53629"/>
<path d="M154.668 716.852C152.04 716.852 149.785 715.911 147.903 714.029C146.021 712.147 145.08 709.892 145.08 707.264C145.08 704.636 146.021 702.381 147.903 700.499C149.785 698.617 152.04 697.676 154.668 697.676C157.295 697.676 159.55 698.617 161.433 700.499C163.315 702.381 164.256 704.636 164.256 707.264C164.256 709.004 163.812 710.602 162.924 712.058C162.072 713.514 160.918 714.686 159.462 715.574C158.041 716.426 156.443 716.852 154.668 716.852ZM188.519 716V606.909H225.38C233.938 606.909 240.934 608.454 246.367 611.543C251.836 614.597 255.884 618.734 258.512 623.955C261.14 629.175 262.453 634.999 262.453 641.426C262.453 647.854 261.14 653.695 258.512 658.951C255.919 664.207 251.907 668.397 246.473 671.522C241.04 674.612 234.08 676.156 225.593 676.156H199.172V664.438H225.167C231.026 664.438 235.731 663.425 239.282 661.401C242.833 659.377 245.408 656.643 247.006 653.198C248.64 649.718 249.456 645.794 249.456 641.426C249.456 637.058 248.64 633.152 247.006 629.707C245.408 626.263 242.816 623.564 239.229 621.611C235.642 619.622 230.884 618.628 224.953 618.628H201.729V716H188.519ZM317.398 716H283.734V606.909H318.89C329.472 606.909 338.528 609.093 346.056 613.461C353.585 617.793 359.355 624.026 363.368 632.158C367.381 640.254 369.387 649.949 369.387 661.241C369.387 672.605 367.363 682.388 363.315 690.592C359.266 698.759 353.371 705.045 345.63 709.448C337.888 713.816 328.478 716 317.398 716ZM296.944 704.281H316.546C325.566 704.281 333.041 702.541 338.972 699.061C344.902 695.581 349.323 690.627 352.235 684.2C355.147 677.772 356.603 670.119 356.603 661.241C356.603 652.435 355.165 644.853 352.288 638.496C349.412 632.104 345.115 627.204 339.398 623.795C333.68 620.35 326.56 618.628 318.038 618.628H296.944V704.281ZM391.546 716V606.909H456.958V618.628H404.756V655.489H452.058V667.207H404.756V716H391.546Z" fill="white"/>
</svg>
