<svg width="86" height="106" viewBox="0 0 86 106" fill="none"
  xmlns="http://www.w3.org/2000/svg">
  <path fill-rule="evenodd" clip-rule="evenodd" d="M37.625 0C33.3484 0 29.2469 1.67517 26.2229 4.657C23.1989 7.63883 21.5 11.6831 21.5 15.9V90.1C21.5 94.3169 23.1989 98.3612 26.2229 101.343C29.2469 104.325 33.3484 106 37.625 106H69.875C74.1516 106 78.2531 104.325 81.2771 101.343C84.3011 98.3612 86 94.3169 86 90.1V15.9C86 11.6831 84.3011 7.63883 81.2771 4.657C78.2531 1.67517 74.1516 0 69.875 0H37.625ZM44.5749 33.3529C45.5828 32.3593 46.9497 31.8011 48.375 31.8011C49.8003 31.8011 51.1672 32.3593 52.1751 33.3529L68.3001 49.2529C69.3078 50.2468 69.8738 51.5946 69.8739 53C69.8739 54.4054 69.3078 55.7532 68.3001 56.7471L52.1751 72.6471C51.1614 73.6125 49.8037 74.1468 48.3943 74.1347C46.985 74.1226 45.6369 73.5652 44.6404 72.5825C43.6438 71.5999 43.0785 70.2706 43.0663 68.8809C43.054 67.4913 43.5958 66.1525 44.5749 65.1529L51.5248 58.3H5.375C3.94946 58.3 2.58231 57.7416 1.5743 56.7477C0.566294 55.7537 0 54.4057 0 53C0 51.5944 0.566294 50.2463 1.5743 49.2523C2.58231 48.2584 3.94946 47.7 5.375 47.7H51.5248L44.5749 40.8471C43.5672 39.8532 43.0011 38.5054 43.0011 37.1C43.0011 35.6946 43.5672 34.3468 44.5749 33.3529Z" fill="#B2B2B2"/>
</svg>
