<svg width="105" height="105" viewBox="0 0 105 105" fill="none"
  xmlns="http://www.w3.org/2000/svg">
  <path fill-rule="evenodd" clip-rule="evenodd" d="M64.6459 7.63503C63.5471 5.3483 61.8242 3.41833 59.6756 2.06752C57.5271 0.716699 55.0404 0 52.502 0C49.9636 0 47.4769 0.716699 45.3284 2.06752C43.1798 3.41833 41.4569 5.3483 40.3581 7.63503L1.60065 83.8252C-3.0363 92.9212 2.82316 105 13.7398 105H91.2594C102.181 105 108.031 92.926 103.403 83.8252L64.6459 7.63503ZM52.502 33.4151C53.7685 33.4151 54.9832 33.9179 55.8787 34.8129C56.7743 35.7079 57.2774 36.9218 57.2774 38.1875V62.0491C57.2774 63.3148 56.7743 64.5286 55.8787 65.4236C54.9832 66.3186 53.7685 66.8214 52.502 66.8214C51.2355 66.8214 50.0208 66.3186 49.1253 65.4236C48.2297 64.5286 47.7266 63.3148 47.7266 62.0491V38.1875C47.7266 36.9218 48.2297 35.7079 49.1253 34.8129C50.0208 33.9179 51.2355 33.4151 52.502 33.4151ZM52.502 73.9799C53.7685 73.9799 54.9832 74.4827 55.8787 75.3777C56.7743 76.2727 57.2774 77.4865 57.2774 78.7522V81.1384C57.2774 82.4041 56.7743 83.6179 55.8787 84.5129C54.9832 85.4079 53.7685 85.9107 52.502 85.9107C51.2355 85.9107 50.0208 85.4079 49.1253 84.5129C48.2297 83.6179 47.7266 82.4041 47.7266 81.1384V78.7522C47.7266 77.4865 48.2297 76.2727 49.1253 75.3777C50.0208 74.4827 51.2355 73.9799 52.502 73.9799Z" fill="#B2B2B2"/>
</svg>
