<svg width="36" height="25" viewBox="0 0 36 25" fill="none"
  xmlns="http://www.w3.org/2000/svg">
  <g clip-path="url(#clip0_48_523)">
    <path d="M35.4909 18.3C35.4909 21.6689 33.6204 24.4 29.9455 24.4H5.54545C1.87048 24.4 0 21.6689 0 18.3V6.1C0 2.73114 1.87048 0 5.54545 0H29.9455C33.6204 0 35.4909 2.73114 35.4909 6.1V18.3Z" fill="#128807"/>
    <path d="M31.687 12.638L17.8289 22.3758L3.97021 12.638L17.8289 2.90015L31.687 12.638Z" fill="#F9CB38"/>
    <path fill-rule="evenodd" clip-rule="evenodd" d="M23.2967 14.3339C22.6656 16.4783 20.6909 18.1109 18.4549 18.3327C15.4676 18.6316 12.854 16.7328 12.2185 13.7976C12.0305 12.9351 12.0545 12.0398 12.2884 11.1885C12.3754 11.0942 12.4958 11.0715 12.6156 11.0549C13.4893 10.9335 14.3726 10.8951 15.2535 10.9401C16.1935 10.9933 17.1257 11.1236 18.0318 11.3798C18.9618 11.6432 19.8624 11.987 20.7125 12.444C21.3522 12.7839 21.9633 13.1752 22.5397 13.6141C22.7349 13.7655 22.934 13.9141 23.1214 14.0755C23.2052 14.1476 23.2706 14.2252 23.2961 14.3339" fill="#002776"/>
    <path fill-rule="evenodd" clip-rule="evenodd" d="M12.6016 10.3207C13.3175 8.72086 14.5247 7.65557 16.1934 7.15537C19.5539 6.14777 23.0015 8.36872 23.5012 11.8324C23.5788 12.3675 23.5821 12.9043 23.5 13.4406C23.4152 13.4722 23.352 13.4273 23.2938 13.379C22.6847 12.8813 22.0349 12.4358 21.3512 12.047C20.8247 11.7482 20.2777 11.4873 19.7142 11.2662C19.6143 11.2268 19.489 11.2063 19.4546 11.0727C19.4907 11.0084 19.5362 10.9523 19.5905 10.9002C19.6099 10.8803 19.6382 10.8608 19.6121 10.8276C19.6033 10.817 19.585 10.817 19.5694 10.8187C19.5278 10.8231 19.5334 10.852 19.535 10.8825C19.5384 10.9817 19.4807 11.0455 19.4047 11.0965C19.27 11.127 19.1408 11.0865 19.0315 11.0283C18.7188 10.8642 18.3727 10.8082 18.0417 10.7167C17.5254 10.5764 16.9952 10.4971 16.4662 10.4144C16.044 10.347 15.619 10.2985 15.1924 10.2691C14.8042 10.242 14.4088 10.2459 14.0179 10.2725C13.5914 10.3024 13.1639 10.3324 12.7396 10.3834C12.713 10.3873 12.6859 10.3834 12.6614 10.3723C12.6369 10.3612 12.6162 10.3433 12.6016 10.3207" fill="#002776"/>
    <path fill-rule="evenodd" clip-rule="evenodd" d="M19.459 11.0382C19.4568 11.1059 19.5172 11.097 19.5538 11.1114C20.9859 11.6685 22.3176 12.4552 23.4966 13.4405C23.4626 13.7447 23.3953 14.0443 23.2959 14.3339C22.6021 13.7583 21.8918 13.2098 21.106 12.7617C18.6222 11.3471 15.9626 10.7865 13.1194 11.087C12.8421 11.1153 12.5649 11.153 12.2876 11.1868C12.3591 10.8868 12.4501 10.5924 12.5993 10.3195C14.6749 10.0395 16.7145 10.1986 18.7159 10.8181C18.9643 10.8951 19.2011 11.0194 19.4662 11.0427L19.459 11.0366" fill="#FEFEFE"/>
    <path fill-rule="evenodd" clip-rule="evenodd" d="M22.0436 14.6124C21.8767 14.5946 22.058 14.7992 21.8894 14.7948C21.7425 14.7926 21.7347 14.675 21.6626 14.6096C21.7181 14.5519 21.8162 14.5403 21.8473 14.4504C21.8683 14.5453 21.9576 14.5652 22.0436 14.6124Z" fill="#D9DFEA"/>
    <path fill-rule="evenodd" clip-rule="evenodd" d="M15.7456 15.6383C15.5887 15.6566 15.7201 15.8274 15.5887 15.8302C15.4562 15.8329 15.388 15.7348 15.3613 15.6333C15.3519 15.6045 15.4795 15.5401 15.5421 15.4924C15.5499 15.5928 15.6541 15.5884 15.7456 15.6383Z" fill="#E9ECF3"/>
    <path fill-rule="evenodd" clip-rule="evenodd" d="M17.8231 15.3295C17.6051 15.4703 17.7809 15.152 17.6528 15.1831C17.6944 15.1165 17.812 15.1321 17.8197 15.03C17.8752 15.0877 17.9223 15.1542 18.0105 15.1664C17.8846 15.1493 18.0216 15.4287 17.8231 15.3295" fill="#EDEFF5"/>
    <path fill-rule="evenodd" clip-rule="evenodd" d="M13.3205 11.5928C13.2684 11.6921 13.229 11.803 13.071 11.7364C12.99 11.7026 13.0765 11.5917 12.9795 11.5811L13.1592 11.4231C13.1714 11.4492 13.1858 11.4741 13.198 11.5002C13.2124 11.5662 13.3438 11.4786 13.3205 11.5928" fill="#F0F2F6"/>
    <path fill-rule="evenodd" clip-rule="evenodd" d="M13.8235 14.0023C13.7409 14.0283 13.8002 14.2457 13.6228 14.1509C13.605 14.142 13.5274 14.1847 13.5418 14.1597C13.5884 14.0688 13.4842 14.0244 13.5002 13.9518C13.5973 13.9939 13.5917 13.8165 13.691 13.8642C13.6982 13.8697 13.6982 13.8919 13.7032 13.9063C13.7137 13.9751 13.8479 13.8891 13.8235 14.0023Z" fill="#ECEFF4"/>
    <path fill-rule="evenodd" clip-rule="evenodd" d="M12.9509 14.6444C12.7807 14.7038 12.9077 14.498 12.8101 14.4997C12.8555 14.4614 12.9065 14.3899 12.952 14.3927C13.0064 14.3954 13.0563 14.4625 13.1062 14.5008C13.0319 14.5257 13.1101 14.727 12.9509 14.6444" fill="#D9DFEA"/>
    <path fill-rule="evenodd" clip-rule="evenodd" d="M19.5313 16.6071C19.3511 16.6892 19.5263 16.4468 19.406 16.4784C19.3938 16.3858 19.5441 16.4418 19.5252 16.3442L19.6877 16.4746C19.6217 16.5045 19.6877 16.693 19.5313 16.6071" fill="#D8DEEA"/>
    <path fill-rule="evenodd" clip-rule="evenodd" d="M20.685 16.4733C20.5358 16.5355 20.6273 16.3347 20.5469 16.3147C20.6012 16.2798 20.6583 16.2426 20.7116 16.2066C20.716 16.2887 20.8286 16.2587 20.8408 16.3314C20.757 16.3364 20.8441 16.5172 20.685 16.4733M21.722 15.7269C21.5523 15.8129 21.6776 15.5872 21.5805 15.5966C21.6 15.5245 21.7114 15.5517 21.7181 15.4685L21.8772 15.5877C21.7802 15.585 21.8994 15.8229 21.722 15.7269" fill="#DCE1EC"/>
    <path fill-rule="evenodd" clip-rule="evenodd" d="M14.8526 14.6916C14.6752 14.792 14.7911 14.5674 14.709 14.563C14.7173 14.4803 14.8426 14.5158 14.8482 14.4282C14.8648 14.5092 14.9724 14.4859 14.9957 14.5585C14.8898 14.543 15.0406 14.7975 14.8526 14.6916" fill="#D4DAE7"/>
    <path fill-rule="evenodd" clip-rule="evenodd" d="M15.5719 13.007C15.4715 13.0004 15.6002 12.8423 15.4771 12.8523C15.4981 12.7636 15.593 12.7819 15.6451 12.7358C15.6717 12.7918 15.7471 12.8046 15.751 12.885C15.7599 13.032 15.6296 12.956 15.5719 13.007" fill="#F2F4F7"/>
    <path fill-rule="evenodd" clip-rule="evenodd" d="M18.4947 14.178C18.3411 14.2662 18.4221 14.0693 18.3511 14.0477C18.3993 14.0078 18.4459 13.9673 18.4947 13.9263C18.498 14.0083 18.655 13.99 18.6106 14.0533C18.584 14.091 18.6699 14.2634 18.4947 14.178Z" fill="#E6E9F1"/>
    <path fill-rule="evenodd" clip-rule="evenodd" d="M17.8064 13.6839C17.6311 13.7017 17.8119 13.5425 17.6982 13.5464C17.7426 13.5048 17.7853 13.4338 17.8352 13.4294C17.8785 13.425 17.9284 13.4954 17.9755 13.5342C17.914 13.5935 17.9234 13.7466 17.8064 13.6839" fill="#EAEDF3"/>
    <path fill-rule="evenodd" clip-rule="evenodd" d="M22.0607 14.9783C22.0967 15.0737 22.1677 15.0864 22.2232 15.1202C22.1666 15.184 22.1444 15.2816 22.0269 15.2816C21.9065 15.2827 21.9881 15.1912 21.9609 15.1485C21.8938 15.042 22.1417 15.1319 22.0607 14.9783" fill="#E4E8F0"/>
    <path fill-rule="evenodd" clip-rule="evenodd" d="M20.8059 16.9104C20.7638 16.973 20.7926 17.0329 20.6806 17.0352C20.5525 17.0374 20.5935 16.9437 20.588 16.9148C20.5775 16.8671 20.6507 16.8217 20.6928 16.8311C20.7294 16.8377 20.8004 16.8583 20.8059 16.9104Z" fill="#CED5E4"/>
    <path fill-rule="evenodd" clip-rule="evenodd" d="M14.8145 15.1335C14.723 15.1441 14.799 15.2639 14.6831 15.26C14.5772 15.2566 14.5927 15.1851 14.5811 15.1419C14.5628 15.0814 14.6521 15.0831 14.672 15.0376C14.7142 15.067 14.7569 15.0964 14.8145 15.1335" fill="#DAE0EB"/>
    <path fill-rule="evenodd" clip-rule="evenodd" d="M20.5571 15.7669C20.5965 15.7375 20.6359 15.7103 20.6775 15.6826C20.6808 15.7442 20.8133 15.7087 20.769 15.7874C20.7507 15.819 20.7956 15.9055 20.6808 15.8978C20.5776 15.8906 20.602 15.8185 20.5571 15.7669Z" fill="#D8DEE9"/>
    <path fill-rule="evenodd" clip-rule="evenodd" d="M20.1356 15.9571C20.1157 16.0664 20.0535 16.0841 19.9853 16.0969C19.8694 16.1163 19.9565 16.0292 19.9376 15.996C19.8888 15.9128 20.012 15.9289 20.0264 15.8745C20.0585 15.9167 20.1323 15.9155 20.1356 15.9571Z" fill="#CBD2E3"/>
    <path fill-rule="evenodd" clip-rule="evenodd" d="M19.4868 12.361C19.448 12.3793 19.4995 12.4719 19.4164 12.4453C19.3531 12.4237 19.2755 12.3937 19.281 12.3161C19.2833 12.2861 19.3587 12.2612 19.4008 12.2351C19.408 12.2911 19.5278 12.2728 19.4868 12.361Z" fill="#D1D8E6"/>
    <path fill-rule="evenodd" clip-rule="evenodd" d="M22.6249 14.7931C22.5206 14.8341 22.5678 14.7482 22.5495 14.7232C22.4796 14.6284 22.6177 14.6423 22.6249 14.5857C22.6676 14.614 22.7508 14.6461 22.7474 14.6705C22.745 14.7022 22.7313 14.732 22.7088 14.7545C22.6864 14.777 22.6566 14.7907 22.6249 14.7931" fill="#DADFEA"/>
    <path fill-rule="evenodd" clip-rule="evenodd" d="M17.2632 13.947C17.2632 14.0113 17.393 13.9858 17.3492 14.0662C17.3315 14.099 17.3692 14.1866 17.2793 14.1683C17.2111 14.1544 17.1424 14.1145 17.1401 14.0468C17.1401 14.0152 17.2189 13.9814 17.2632 13.947Z" fill="#CAD2E2"/>
    <path fill-rule="evenodd" clip-rule="evenodd" d="M19.0377 15.9533C18.9867 15.9295 18.9845 15.8624 18.9878 15.8302C18.9934 15.7875 19.0505 15.7299 19.0993 15.7532C19.1292 15.7676 19.2141 15.7593 19.1936 15.8369C19.1747 15.9112 19.1004 15.9217 19.0377 15.9533Z" fill="#D0D7E5"/>
    <path fill-rule="evenodd" clip-rule="evenodd" d="M21.1836 15.8558C21.1858 15.8552 21.2246 15.8014 21.2684 15.8003C21.3 15.7992 21.3322 15.8646 21.366 15.9012C21.3206 15.914 21.3594 15.9977 21.2695 15.9966C21.1886 15.995 21.1886 15.9584 21.1836 15.8558Z" fill="#EFF2F6"/>
    <path fill-rule="evenodd" clip-rule="evenodd" d="M17.6159 14.4515C17.6009 14.5114 17.6009 14.5485 17.5477 14.5474C17.4933 14.5463 17.4667 14.5263 17.4678 14.4709C17.4678 14.4271 17.4966 14.3966 17.5294 14.3993C17.5671 14.4021 17.6209 14.4127 17.6159 14.4515" fill="#CCD4E3"/>
    <path fill-rule="evenodd" clip-rule="evenodd" d="M14.2159 13.5886C14.2425 13.6175 14.273 13.6402 14.2847 13.6696C14.2946 13.694 14.2791 13.7311 14.2447 13.735C14.2065 13.7384 14.1654 13.7372 14.1532 13.6895C14.1421 13.643 14.1826 13.6263 14.2159 13.5886Z" fill="#E0E5EE"/>
    <path fill-rule="evenodd" clip-rule="evenodd" d="M13.8235 14.0023C13.8085 13.9385 13.7098 13.979 13.7031 13.9058C13.7242 13.9612 13.8889 13.8376 13.8235 14.0023Z" fill="#7085B1"/>
    <path fill-rule="evenodd" clip-rule="evenodd" d="M13.3208 11.5929C13.3086 11.5246 13.2038 11.5784 13.1982 11.5002C13.2276 11.5468 13.3763 11.4365 13.3208 11.5929Z" fill="#5C75A7"/>
    <path fill-rule="evenodd" clip-rule="evenodd" d="M19.4705 11.0443C19.481 11.0022 19.5149 10.9334 19.5015 10.9206C19.3208 10.7598 19.562 10.7327 19.598 10.6999C19.664 10.6362 19.6535 10.9051 19.8276 10.7349C19.7339 10.9428 19.6086 11.0027 19.4644 11.0382L19.4705 11.0443Z" fill="#E7EAF2"/>
    <path fill-rule="evenodd" clip-rule="evenodd" d="M14.1252 10.8719C13.9489 10.8547 14.1058 10.6251 14.0675 10.492C14.0198 10.3201 14.1452 10.3223 14.2672 10.3218C14.4563 10.3207 14.5633 10.4005 14.5633 10.6002C14.5627 10.7965 14.4718 10.8741 14.1252 10.8719Z" fill="#15A24A"/>
    <path fill-rule="evenodd" clip-rule="evenodd" d="M20.8627 11.9799C20.8239 12.0986 20.6803 12.1729 20.6559 12.3193C20.6537 12.3387 20.5982 12.3348 20.5877 12.2783C20.5433 12.0132 20.5411 12.0137 20.3453 12.1557C20.3298 12.1673 20.3026 12.1779 20.2877 12.1729C20.2588 12.1601 20.2472 12.1313 20.2644 12.0986C20.3293 11.9721 20.3903 11.8424 20.4629 11.7198C20.5117 11.6389 20.571 11.7065 20.6187 11.7298C20.7235 11.7814 20.8527 11.8108 20.8627 11.9799" fill="#13A248"/>
    <path fill-rule="evenodd" clip-rule="evenodd" d="M21.3589 12.4113C21.2569 12.4523 21.2075 12.3753 21.1421 12.3475C21.0977 12.3287 21.0561 12.3109 21.0262 12.3603C20.9934 12.4124 21.0262 12.4424 21.0711 12.4657C21.1055 12.4828 21.1421 12.4962 21.1676 12.5233C21.2125 12.5705 21.3533 12.5577 21.2962 12.6581C21.2513 12.7379 21.1759 12.6448 21.126 12.6154C21.04 12.5627 20.8698 12.5339 20.8881 12.4424C20.9164 12.2954 21.0001 12.1357 21.1116 12.0348C21.2008 11.9538 21.2996 12.1069 21.3999 12.1451C21.4432 12.1612 21.5169 12.1756 21.5042 12.2438C21.492 12.3143 21.4399 12.2732 21.3999 12.2638C21.3062 12.2422 21.2153 12.0836 21.1415 12.1934C21.0971 12.2588 21.2796 12.286 21.3373 12.3581C21.3461 12.3686 21.3484 12.383 21.3589 12.4113M22.5539 13.1954C22.5706 13.3252 22.5179 13.4134 22.382 13.3912C22.2412 13.3679 22.1341 13.2819 22.1097 13.1278C22.1075 13.1123 22.1264 13.0806 22.1419 13.0762C22.1508 13.0733 22.1603 13.0723 22.1697 13.0735C22.179 13.0746 22.188 13.0778 22.1959 13.0827C22.2039 13.0877 22.2107 13.0943 22.2159 13.1022C22.221 13.1101 22.2243 13.119 22.2256 13.1283C22.2434 13.2343 22.2988 13.2814 22.4103 13.2836C22.4319 13.11 22.1186 13.0307 22.2988 12.8505C22.3892 12.7601 22.4996 12.835 22.5783 12.9076C22.651 12.9736 22.7397 13.0463 22.6072 13.1405C22.5883 13.1306 22.5628 13.1145 22.5489 13.1256C22.5207 13.1444 22.5484 13.1716 22.5539 13.1954Z" fill="#11A147"/>
    <path fill-rule="evenodd" clip-rule="evenodd" d="M18.7239 11.544C18.6579 11.5069 18.6612 11.4714 18.6718 11.4326C18.6929 11.3499 18.6502 11.3067 18.5747 11.2834C18.4993 11.259 18.4411 11.2623 18.4206 11.3566C18.4134 11.3987 18.3912 11.4281 18.3452 11.4126C18.2919 11.3932 18.3185 11.3499 18.3285 11.3183C18.3496 11.2457 18.3684 11.1725 18.4017 11.1032C18.4317 11.0339 18.4106 10.9069 18.5198 10.9152C18.6357 10.9235 18.7611 10.9512 18.8492 11.0472C18.8886 11.0893 18.9047 11.162 18.8725 11.1936C18.7788 11.2901 18.7866 11.4265 18.7239 11.544Z" fill="#0FA046"/>
    <path fill-rule="evenodd" clip-rule="evenodd" d="M15.3017 10.8382C15.1226 10.9058 14.9812 10.8665 14.8431 10.8692C14.7804 10.8709 14.7749 10.8238 14.7749 10.7761C14.7793 10.7234 14.7793 10.6702 14.7793 10.6175C14.786 10.3252 14.8897 10.2504 15.1769 10.3319C15.2091 10.3408 15.2396 10.3463 15.2418 10.3824C15.2418 10.4323 15.2058 10.4411 15.1614 10.44C15.1553 10.4389 15.1481 10.4373 15.1403 10.4384C15.0544 10.4594 14.9002 10.3624 14.8975 10.491C14.8941 10.5898 15.0622 10.5199 15.1481 10.5532C15.1603 10.5581 15.1736 10.5692 15.1925 10.5831C15.1381 10.6813 15.0477 10.6264 14.9779 10.638C14.9363 10.6447 14.8819 10.6264 14.8758 10.694C14.8681 10.7739 14.9235 10.77 14.9779 10.7755C15.0705 10.7866 15.1708 10.7517 15.3017 10.8382" fill="#0B9F43"/>
    <path fill-rule="evenodd" clip-rule="evenodd" d="M13.8299 10.8803C13.7334 10.8593 13.7467 10.8038 13.7301 10.765C13.7013 10.6935 13.6442 10.6935 13.5815 10.6985C13.51 10.7051 13.4711 10.7328 13.4772 10.8121C13.4817 10.851 13.4972 10.9136 13.4251 10.9047C13.363 10.897 13.3807 10.8365 13.3774 10.7955C13.3719 10.7284 13.3652 10.6596 13.3719 10.5931C13.3807 10.5188 13.3098 10.4051 13.4168 10.3785C13.5271 10.3496 13.6547 10.3291 13.7695 10.384C13.8194 10.4079 13.8588 10.4661 13.8405 10.5132C13.7983 10.6319 13.8316 10.7522 13.8299 10.8803" fill="#079D3F"/>
    <path fill-rule="evenodd" clip-rule="evenodd" d="M12.6587 10.6917C12.6764 10.5414 12.7424 10.4194 12.9071 10.425C13.0652 10.43 13.1495 10.5398 13.1495 10.6978C13.1495 10.8548 13.0763 10.9629 12.9093 10.9618C12.7397 10.9607 12.682 10.8376 12.6587 10.6917Z" fill="#15A24A"/>
    <path fill-rule="evenodd" clip-rule="evenodd" d="M23.2154 13.5087C23.1999 13.6579 23.1261 13.7705 22.9559 13.7854C22.7989 13.7982 22.7157 13.7084 22.7035 13.5609C22.6897 13.4117 22.8361 13.2692 22.9853 13.2703C23.1161 13.2714 23.2121 13.3662 23.2154 13.5087Z" fill="#11A147"/>
    <path fill-rule="evenodd" clip-rule="evenodd" d="M20.1024 11.773C20.2278 11.8739 20.0758 11.9405 20.0703 12.0253C19.966 11.9771 19.8357 11.9965 19.7514 11.905C19.6616 11.8074 19.6782 11.697 19.737 11.5894C19.8019 11.4758 19.9017 11.427 20.0243 11.4702C20.1363 11.5101 20.22 11.5856 20.1657 11.7275C20.0797 11.743 20.0093 11.6299 19.8884 11.7059C19.9688 11.743 20.0653 11.6915 20.1024 11.773" fill="#0C9F43"/>
    <path fill-rule="evenodd" clip-rule="evenodd" d="M17.0859 10.6307C17.0127 10.7166 16.9589 10.6833 16.9085 10.6845C16.8597 10.6845 16.8076 10.644 16.7471 10.6944C16.8015 10.7832 16.9329 10.726 16.9839 10.8142C16.9767 10.827 16.9734 10.8442 16.9639 10.853C16.8907 10.9107 16.7737 10.771 16.7283 10.8863C16.6867 10.9856 16.7959 10.9512 16.843 10.9678C16.8963 10.9889 16.9623 10.9811 17.0266 11.0532C16.8774 11.1187 16.6994 11.0882 16.6379 11.0161C16.5408 10.9024 16.609 10.7005 16.6828 10.5996C16.7698 10.4804 16.929 10.5968 17.0859 10.6307" fill="#19A44D"/>
    <path fill-rule="evenodd" clip-rule="evenodd" d="M18.0312 11.1132C17.9054 11.0999 17.7623 11.0111 17.7262 11.2185C17.7251 11.2252 17.6813 11.2346 17.668 11.2257C17.653 11.2174 17.6447 11.1864 17.6475 11.1686C17.6802 11.0372 17.6969 10.8963 17.7551 10.7782C17.8227 10.6451 17.9375 10.7577 18.0324 10.7705C18.1455 10.7854 18.2081 10.8542 18.1959 10.9734C18.1849 11.076 18.1072 11.1037 18.0312 11.1132" fill="#0D9F44"/>
    <path fill-rule="evenodd" clip-rule="evenodd" d="M19.5309 11.4308C19.5187 11.5978 19.4366 11.7131 19.2697 11.7181C19.1205 11.7236 19.0368 11.6188 19.0401 11.4702C19.0446 11.3094 19.1228 11.1929 19.2963 11.188C19.4555 11.1824 19.517 11.2894 19.5309 11.4308" fill="#0FA046"/>
    <path fill-rule="evenodd" clip-rule="evenodd" d="M15.793 10.8287C15.7747 10.8681 15.7598 10.9241 15.7071 10.9114C15.6156 10.8897 15.6566 10.8016 15.6344 10.7439C15.5668 10.6779 15.5845 10.7689 15.5635 10.7855C15.5557 10.8265 15.5746 10.8892 15.5191 10.8975C15.4509 10.9058 15.467 10.8404 15.4686 10.8016C15.4742 10.7206 15.4753 10.6358 15.4975 10.5581C15.5169 10.4916 15.4465 10.369 15.579 10.3679C15.696 10.3674 15.6705 10.4866 15.6855 10.5581C15.701 10.6402 15.7093 10.6751 15.7764 10.5936C15.8457 10.5753 15.8601 10.6258 15.8762 10.6746C15.8851 10.7456 15.8535 10.7949 15.793 10.8287" fill="#0EA044"/>
    <path fill-rule="evenodd" clip-rule="evenodd" d="M21.6991 12.8656C21.7402 12.8656 21.7818 12.9199 21.8217 12.8733C21.8522 12.8384 21.825 12.804 21.7979 12.7757C21.7779 12.7541 21.7568 12.7336 21.738 12.7103C21.6814 12.6421 21.6021 12.5766 21.6803 12.4779C21.7513 12.3875 21.8339 12.4097 21.916 12.4668C21.9309 12.4957 21.926 12.5234 21.9104 12.5495C21.85 12.6443 21.9626 12.702 21.9603 12.7829C21.9775 12.8589 21.9886 12.9354 21.9049 12.9792C21.8006 13.0347 21.7202 12.9837 21.6437 12.9171C21.6354 12.8733 21.6515 12.8517 21.6991 12.8656" fill="#10A146"/>
    <path fill-rule="evenodd" clip-rule="evenodd" d="M20.1024 11.773C20.0597 11.8029 19.9738 11.7059 19.9765 11.7791C19.9821 11.9088 19.9172 11.8972 19.8567 11.8589C19.7752 11.8085 19.7708 11.7219 19.8224 11.6421C19.8723 11.5639 19.9427 11.5184 20.0281 11.5822C20.0802 11.6205 20.1196 11.6781 20.1645 11.7275L20.1024 11.773" fill="#ECF7F0"/>
    <path fill-rule="evenodd" clip-rule="evenodd" d="M15.8296 10.6973C15.8134 10.6631 15.7956 10.6296 15.7764 10.597C15.7958 10.5476 15.8135 10.4977 15.8368 10.45C15.8579 10.4051 15.8945 10.3801 15.9461 10.3968C16.0037 10.4162 15.9993 10.4606 15.996 10.5071C15.9838 10.643 15.9727 10.7783 15.9621 10.9142C15.8812 10.9657 15.8607 10.9186 15.8473 10.8487C15.8374 10.7983 15.8634 10.7439 15.8296 10.6973Z" fill="#17A34C"/>
    <path fill-rule="evenodd" clip-rule="evenodd" d="M21.9626 12.7822C21.9127 12.7312 21.8594 12.683 21.8129 12.6286C21.7585 12.5643 21.7796 12.5249 21.8605 12.5144C21.9776 12.5405 22.0491 12.597 22.0147 12.7312C21.9986 12.7479 21.9809 12.7656 21.9626 12.7822" fill="#D7EFE0"/>
    <path fill-rule="evenodd" clip-rule="evenodd" d="M22.015 12.7314C21.9612 12.6615 21.9468 12.5617 21.8608 12.5146L21.9185 12.4663C22.0117 12.5323 22.1819 12.57 22.015 12.7314Z" fill="#2BAB5B"/>
    <path fill-rule="evenodd" clip-rule="evenodd" d="M22.5539 13.1956C22.5467 13.1912 22.5373 13.1889 22.5339 13.1828C22.4896 13.1008 22.3426 13.027 22.3925 12.9544C22.4552 12.8667 22.5206 12.9704 22.555 13.0453C22.5705 13.0769 22.5894 13.108 22.6071 13.1407C22.5888 13.159 22.5705 13.1773 22.5539 13.1956" fill="#E6F5EC"/>
    <path fill-rule="evenodd" clip-rule="evenodd" d="M21.6995 12.8655C21.6818 12.8827 21.6646 12.9004 21.6441 12.9176C21.6208 12.901 21.5886 12.8893 21.5736 12.8655C21.5454 12.8117 21.4644 12.7401 21.5581 12.698C21.6369 12.6603 21.6369 12.7607 21.6624 12.8095C21.6729 12.83 21.6862 12.8472 21.6995 12.8655Z" fill="#29AA59"/>
    <path fill-rule="evenodd" clip-rule="evenodd" d="M15.8296 10.6973C15.9106 10.7289 15.8679 10.7965 15.869 10.847C15.8734 10.9163 15.8978 10.9396 15.9627 10.9152C15.8274 11.0461 15.8446 10.8714 15.7925 10.8326C15.8063 10.7865 15.8169 10.7416 15.8296 10.6973" fill="#DDF1E4"/>
    <path fill-rule="evenodd" clip-rule="evenodd" d="M15.5605 10.786V10.6074C15.6371 10.6318 15.6393 10.6856 15.6315 10.7444C15.6082 10.7583 15.5838 10.7716 15.5605 10.786Z" fill="#6FC690"/>
    <path fill-rule="evenodd" clip-rule="evenodd" d="M14.1787 10.603C14.1865 10.5221 14.1477 10.4167 14.2857 10.4256C14.3867 10.4317 14.4599 10.4722 14.4654 10.5875C14.471 10.7117 14.3983 10.7622 14.2835 10.7705C14.1377 10.7821 14.197 10.6674 14.1787 10.603" fill="#F5FBF7"/>
    <path fill-rule="evenodd" clip-rule="evenodd" d="M20.5736 11.8229C20.6313 11.8545 20.7195 11.8606 20.7383 11.946C20.7478 11.9904 20.7095 12.0198 20.6701 12.007C20.5969 11.9849 20.4999 11.9837 20.4899 11.8806C20.4871 11.8507 20.5193 11.8129 20.5736 11.8229Z" fill="#EFF8F3"/>
    <path fill-rule="evenodd" clip-rule="evenodd" d="M18.7751 11.1409C18.7602 11.1986 18.7197 11.2185 18.6731 11.2013C18.6104 11.1786 18.5095 11.2036 18.5084 11.0938C18.5062 11.0366 18.545 11.0194 18.5971 11.0366C18.6659 11.0588 18.7491 11.056 18.7751 11.1409Z" fill="#DEF2E5"/>
    <path fill-rule="evenodd" clip-rule="evenodd" d="M13.5948 10.4583C13.6492 10.4649 13.7351 10.4361 13.7296 10.5287C13.7241 10.6096 13.642 10.5969 13.5832 10.598C13.5361 10.5997 13.4684 10.6241 13.464 10.5392C13.4606 10.4383 13.5394 10.4699 13.5948 10.4583" fill="#F3FAF5"/>
    <path fill-rule="evenodd" clip-rule="evenodd" d="M12.8932 10.5354C12.9936 10.5421 13.0435 10.6019 13.0473 10.6962C13.0529 10.7805 13.0113 10.8526 12.9248 10.8604C12.825 10.8698 12.7801 10.7938 12.7745 10.7012C12.769 10.6158 12.8022 10.5537 12.8932 10.5354" fill="#F3FAF6"/>
    <path fill-rule="evenodd" clip-rule="evenodd" d="M23.105 13.5283C23.0905 13.6204 23.0351 13.6852 22.9281 13.6852C22.8421 13.6841 22.8099 13.6215 22.8188 13.5455C22.8271 13.4424 22.8887 13.3758 22.9935 13.3775C23.0761 13.3797 23.1083 13.439 23.105 13.5283" fill="#F9FCFA"/>
    <path fill-rule="evenodd" clip-rule="evenodd" d="M17.9009 10.8404C17.9569 10.8748 18.0695 10.8393 18.0856 10.9502C18.0906 10.9923 18.044 11.014 18.0068 11.0056C17.9342 10.9896 17.8327 11.0156 17.8238 10.8986C17.8222 10.8626 17.8383 10.8238 17.9009 10.8404Z" fill="#E7F5EC"/>
    <path fill-rule="evenodd" clip-rule="evenodd" d="M19.4205 11.4441C19.41 11.5401 19.3628 11.6072 19.2658 11.6072C19.1704 11.6083 19.1366 11.5417 19.141 11.4541C19.1488 11.3576 19.2037 11.2933 19.2974 11.2894C19.3906 11.2861 19.4205 11.3604 19.4205 11.4441" fill="#F5FBF7"/>
  </g>
  <defs>
    <clipPath id="clip0_48_523">
      <rect width="35.4909" height="24.4" fill="white"/>
    </clipPath>
  </defs>
</svg>
