<svg width="35" height="25" viewBox="0 0 35 25" fill="none"
  xmlns="http://www.w3.org/2000/svg">
  <g clip-path="url(#clip0_48_587)">
    <path d="M34.343 1.76228C33.6811 0.632153 32.4634 -0.135498 31.0528 -0.135498H17.6821V1.76228H34.343ZM0.491211 18.8423H34.873V20.7401H0.491211V18.8423ZM17.6821 11.2512H34.873V13.1489H17.6821V11.2512ZM17.6821 7.45561H34.873V9.35339H17.6821V7.45561ZM0.491211 15.0467H34.873V16.9445H0.491211V15.0467ZM4.31141 24.5356H31.0528C32.4634 24.5356 33.6811 23.768 34.343 22.6378H1.02126C1.68311 23.768 2.9008 24.5356 4.31141 24.5356ZM17.6821 3.66006H34.873V5.55784H17.6821V3.66006Z" fill="#B22334"/>
    <path d="M0.556154 21.3843C0.57239 21.4725 0.590536 21.5608 0.612502 21.6471C0.637334 21.743 0.667895 21.835 0.700367 21.928C0.785366 22.1738 0.888512 22.411 1.0184 22.633L1.02126 22.6378H34.343L34.3449 22.634C34.4731 22.4103 34.5793 22.1748 34.662 21.9308C34.7249 21.7528 34.7734 21.57 34.8071 21.3843C34.8463 21.1755 34.873 20.9611 34.873 20.74H0.491211C0.491211 20.9611 0.517952 21.1746 0.556154 21.3843ZM0.491211 16.9444H34.873V18.8422H0.491211V16.9444ZM0.491211 13.1489V15.0467H34.873V13.1489H17.6821H0.491211ZM17.6821 9.35332H34.873V11.2511H17.6821V9.35332ZM17.6821 5.55776H34.873V7.45554H17.6821V5.55776ZM1.02126 1.76221L1.0184 1.76695L1.02126 1.76221ZM0.613457 2.75285C0.637334 2.65606 0.67076 2.56402 0.701322 2.47103C0.668156 2.56373 0.638843 2.65775 0.613457 2.75285V2.75285ZM17.6821 3.65998H34.873C34.873 3.43889 34.8463 3.22444 34.8071 3.01474C34.7737 2.82886 34.7248 2.64605 34.661 2.46818C34.5782 2.22319 34.4717 1.98676 34.343 1.76221H17.6821V3.65998Z" fill="#EEEEEE"/>
    <path d="M17.6821 -0.135498H4.31141C3.29823 -0.135498 2.32655 0.26439 1.61012 0.976194C0.893695 1.688 0.491211 2.65341 0.491211 3.66006L0.491211 13.1489H17.6821V-0.135498Z" fill="#3C3B6E"/>
    <path d="M2.40186 2.4511L2.99208 2.87715L2.76668 3.5651L3.35595 3.13999L3.94617 3.5651L3.72078 2.87715L4.311 2.4511H3.58134L3.35595 1.76221L3.13151 2.4511H2.40186ZM4.31196 4.34888L4.90218 4.77493L4.67679 5.46287L5.26605 5.03777L5.85627 5.46287L5.63088 4.77493L6.2211 4.34888H5.49144L5.26605 3.65998L5.04161 4.34888H4.31196ZM8.13216 4.34888L8.72238 4.77493L8.49699 5.46287L9.08625 5.03777L9.67647 5.46287L9.45108 4.77493L10.0413 4.34888H9.31165L9.08625 3.65998L8.86182 4.34888H8.13216ZM11.9524 4.34888L12.5426 4.77493L12.3172 5.46287L12.9065 5.03777L13.4967 5.46287L13.2713 4.77493L13.8615 4.34888H13.1318L12.9065 3.65998L12.682 4.34888H11.9524ZM4.31196 8.14443L4.90218 8.57048L4.67679 9.25843L5.26605 8.83333L5.85627 9.25843L5.63088 8.57048L6.2211 8.14443H5.49144L5.26605 7.45554L5.04161 8.14443H4.31196ZM8.13216 8.14443L8.72238 8.57048L8.49699 9.25843L9.08625 8.83333L9.67647 9.25843L9.45108 8.57048L10.0413 8.14443H9.31165L9.08625 7.45554L8.86182 8.14443H8.13216ZM11.9524 8.14443L12.5426 8.57048L12.3172 9.25843L12.9065 8.83333L13.4967 9.25843L13.2713 8.57048L13.8615 8.14443H13.1318L12.9065 7.45554L12.682 8.14443H11.9524ZM6.22206 2.4511L6.81228 2.87715L6.58689 3.5651L7.17615 3.13999L7.76637 3.5651L7.54098 2.87715L8.1312 2.4511H7.40154L7.17615 1.76221L6.95172 2.4511H6.22206ZM10.0423 2.4511L10.6325 2.87715L10.4071 3.5651L10.9964 3.13999L11.5866 3.5651L11.3612 2.87715L11.9514 2.4511H11.2217L10.9964 1.76221L10.7719 2.4511H10.0423ZM13.8625 2.4511L14.4527 2.87715L14.2273 3.5651L14.8166 3.13999L15.4068 3.5651L15.1814 2.87715L15.7716 2.4511H15.0419L14.8166 1.76221L14.5921 2.4511H13.8625ZM2.40186 6.24666L2.99208 6.67271L2.76668 7.36065L3.35595 6.93555L3.94617 7.36065L3.72078 6.67271L4.311 6.24666H3.58134L3.35595 5.55776L3.13151 6.24666H2.40186ZM6.58689 7.36065L7.17615 6.93555L7.76637 7.36065L7.54098 6.67271L8.1312 6.24666H7.40154L7.17615 5.55776L6.95172 6.24666H6.22206L6.81228 6.67271L6.58689 7.36065ZM10.0423 6.24666L10.6325 6.67271L10.4071 7.36065L10.9964 6.93555L11.5866 7.36065L11.3612 6.67271L11.9514 6.24666H11.2217L10.9964 5.55776L10.7719 6.24666H10.0423ZM13.8625 6.24666L14.4527 6.67271L14.2273 7.36065L14.8166 6.93555L15.4068 7.36065L15.1814 6.67271L15.7716 6.24666H15.0419L14.8166 5.55776L14.5921 6.24666H13.8625ZM2.40186 10.0422L2.99208 10.4683L2.76668 11.1562L3.35595 10.7311L3.94617 11.1562L3.72078 10.4683L4.311 10.0422H3.58134L3.35595 9.35332L3.13151 10.0422H2.40186ZM6.58689 11.1562L7.17615 10.7311L7.76637 11.1562L7.54098 10.4683L8.1312 10.0422H7.40154L7.17615 9.35332L6.95172 10.0422H6.22206L6.81228 10.4683L6.58689 11.1562ZM10.0423 10.0422L10.6325 10.4683L10.4071 11.1562L10.9964 10.7311L11.5866 11.1562L11.3612 10.4683L11.9514 10.0422H11.2217L10.9964 9.35332L10.7719 10.0422H10.0423ZM13.8625 10.0422L14.4527 10.4683L14.2273 11.1562L14.8166 10.7311L15.4068 11.1562L15.1814 10.4683L15.7716 10.0422H15.0419L14.8166 9.35332L14.5921 10.0422H13.8625Z" fill="white"/>
  </g>
  <defs>
    <clipPath id="clip0_48_587">
      <rect width="34.3818" height="24.4" fill="white" transform="translate(0.491211)"/>
    </clipPath>
  </defs>
</svg>
