<svg width="31" height="31" viewBox="0 0 31 31" fill="none"
  xmlns="http://www.w3.org/2000/svg">
  <path d="M21.1384 8.28461C18.6972 8.28461 17.6654 9.44953 15.9653 9.44953C14.2221 9.44953 12.8925 8.29308 10.777 8.29308C8.70632 8.29308 6.49818 9.5573 5.09591 11.711C3.12693 14.748 3.46114 20.4678 6.65015 25.3407C7.79085 27.085 9.31421 29.0413 11.3123 29.0625H11.3486C13.0851 29.0625 13.6009 27.9254 15.9907 27.9121H16.027C18.3811 27.9121 18.8534 29.0558 20.5826 29.0558H20.6189C22.617 29.0346 24.2221 26.867 25.3628 25.1294C26.1838 23.8797 26.4889 23.2524 27.1186 21.8386C22.5056 20.0876 21.7645 13.5479 26.3267 11.0407C24.9341 9.29695 22.9772 8.28703 21.1324 8.28703L21.1384 8.28461Z" fill="white"/>
  <path d="M20.6008 1.93903C19.1477 2.03772 17.4524 2.96287 16.4594 4.17078C15.5585 5.26547 14.8174 6.88934 15.108 8.46416H15.2243C16.7719 8.46416 18.3558 7.53234 19.2809 6.33836C20.1722 5.2019 20.8479 3.59135 20.6008 1.93903Z" fill="white"/>
</svg>
