<svg width="31" height="29" viewBox="0 0 31 29" fill="none"
  xmlns="http://www.w3.org/2000/svg">
  <path d="M15.4999 27.25V14.875M15.4999 27.25L12.0624 24.5M15.4999 27.25L18.9374 24.5M5.92167 9.53589C4.62121 9.86313 3.485 10.654 2.72651 11.7599C1.96803 12.8658 1.63948 14.2106 1.80259 15.5416C1.9657 16.8726 2.60924 18.0983 3.61231 18.9883C4.61537 19.8784 5.90892 20.3715 7.24992 20.375H8.62492" stroke="white" stroke-width="2" stroke-linecap="round" stroke-linejoin="round"/>
  <path d="M20.7664 6.81485C20.2964 4.95389 19.1365 3.34125 17.5216 2.30383C15.9067 1.26641 13.9578 0.88185 12.0699 1.22809C10.182 1.57434 8.49637 2.62548 7.35474 4.16844C6.21311 5.7114 5.70089 7.63073 5.92191 9.53735C5.92191 9.53735 6.13228 10.7501 6.56266 11.4376" stroke="white" stroke-width="2" stroke-linecap="round" stroke-linejoin="round"/>
  <path d="M22.375 20.375C23.3458 20.3743 24.3055 20.1681 25.1908 19.7698C26.0762 19.3715 26.8671 18.7903 27.5116 18.0643C28.1561 17.3383 28.6396 16.484 28.9302 15.5577C29.2207 14.6314 29.3118 13.6541 29.1974 12.69C29.0831 11.726 28.7658 10.7971 28.2666 9.96452C27.7673 9.13192 27.0974 8.41449 26.301 7.85945C25.5045 7.30442 24.5995 6.92436 23.6455 6.74429C22.6915 6.56423 21.7103 6.58824 20.7663 6.81475L18.9375 7.3125" stroke="white" stroke-width="2" stroke-linecap="round" stroke-linejoin="round"/>
</svg>
