<svg width="36" height="36" viewBox="0 0 36 36" fill="none"
  xmlns="http://www.w3.org/2000/svg">
  <path d="M16.4971 24L23.9971 18L16.4971 12V16.5H2.99707V19.5H16.4971V24Z" fill="white"/>
  <path d="M19.4986 4.49859C17.7249 4.49367 15.9679 4.84075 14.3293 5.51973C12.6906 6.19871 11.203 7.19609 9.95264 8.45409L12.0736 10.5751C14.0566 8.59209 16.6936 7.49859 19.4986 7.49859C22.3036 7.49859 24.9406 8.59209 26.9236 10.5751C28.9066 12.5581 30.0001 15.1951 30.0001 18.0001C30.0001 20.8051 28.9066 23.4421 26.9236 25.4251C24.9406 27.4081 22.3036 28.5016 19.4986 28.5016C16.6936 28.5016 14.0566 27.4081 12.0736 25.4251L9.95264 27.5461C12.5011 30.0961 15.8911 31.5016 19.4986 31.5016C23.1061 31.5016 26.4961 30.0961 29.0446 27.5461C31.5946 24.9976 33.0001 21.6076 33.0001 18.0001C33.0001 14.3926 31.5946 11.0026 29.0446 8.45409C27.7942 7.19609 26.3066 6.19871 24.668 5.51973C23.0294 4.84075 21.2723 4.49367 19.4986 4.49859Z" fill="white"/>
</svg>
