<svg width="17" height="17" viewBox="0 0 17 17" fill="none"
  xmlns="http://www.w3.org/2000/svg">
  <path d="M1 4.75V2.875C1 2.37772 1.19754 1.90081 1.54917 1.54917C1.90081 1.19754 2.37772 1 2.875 1H4.75M1 12.25V14.125C1 14.6223 1.19754 15.0992 1.54917 15.4508C1.90081 15.8025 2.37772 16 2.875 16H4.75M12.25 1H14.125C14.6223 1 15.0992 1.19754 15.4508 1.54917C15.8025 1.90081 16 2.37772 16 2.875V4.75M12.25 16H14.125C14.6223 16 15.0992 15.8025 15.4508 15.4508C15.8025 15.0992 16 14.6223 16 14.125V12.25" stroke="white" stroke-linecap="round" stroke-linejoin="round"/>
  <path d="M11.3125 7.5625H5.6875C5.16973 7.5625 4.75 7.98223 4.75 8.5V11.3125C4.75 11.8303 5.16973 12.25 5.6875 12.25H11.3125C11.8303 12.25 12.25 11.8303 12.25 11.3125V8.5C12.25 7.98223 11.8303 7.5625 11.3125 7.5625Z" stroke="white" stroke-width="2" stroke-linecap="round" stroke-linejoin="round"/>
  <path d="M6.625 7.5625V5.6875C6.625 5.19022 6.82254 4.71331 7.17418 4.36167C7.52581 4.01004 8.00272 3.8125 8.5 3.8125C8.99728 3.8125 9.47419 4.01004 9.82582 4.36167C10.1775 4.71331 10.375 5.19022 10.375 5.6875V7.5625" stroke="white" stroke-width="2" stroke-linecap="round" stroke-linejoin="round"/>
</svg>
