<svg width="490" height="466" viewBox="0 0 490 466" fill="none"
    xmlns="http://www.w3.org/2000/svg">
    <circle cx="148.5" cy="148.5" r="148.5" fill="white"/>
    <rect x="338" y="66" width="20" height="225" fill="white"/>
    <path d="M326 77C326 70.9249 330.925 66 337 66H360C366.075 66 371 70.9249 371 77V77H326V77Z" fill="white"/>
    <path d="M326 88C326 81.9249 330.925 77 337 77H360C366.075 77 371 81.9249 371 88V88H326V88Z" fill="white"/>
    <path d="M326 99C326 92.9249 330.925 88 337 88H360C366.075 88 371 92.9249 371 99V99H326V99Z" fill="white"/>
    <path d="M326 110C326 103.925 330.925 99 337 99H360C366.075 99 371 103.925 371 110V110H326V110Z" fill="white"/>
    <rect x="426" y="71" width="20" height="225" fill="white"/>
    <rect x="418" y="151" width="37" height="133" rx="10" fill="white"/>
    <rect x="394" y="161" width="84" height="110" rx="16" fill="white"/>
    <rect x="383" y="161" width="107" height="18" rx="9" fill="white"/>
    <rect x="115" y="284" width="32" height="182" rx="13" fill="white"/>
    <rect x="330" y="287" width="36" height="171" rx="13" fill="white"/>
    <rect x="418" y="291" width="37" height="164" rx="13" fill="white"/>
    <rect x="90" y="306" width="388" height="160" rx="21" fill="white"/>
</svg>
