<svg width="13" height="16" viewBox="0 0 13 16" fill="none"
  xmlns="http://www.w3.org/2000/svg">
  <path fill-rule="evenodd" clip-rule="evenodd" d="M5.6875 0C5.04103 0 4.42105 0.252856 3.96393 0.702944C3.50681 1.15303 3.25 1.76348 3.25 2.4V13.6C3.25 14.2365 3.50681 14.847 3.96393 15.2971C4.42105 15.7471 5.04103 16 5.6875 16H10.5625C11.209 16 11.829 15.7471 12.2861 15.2971C12.7432 14.847 13 14.2365 13 13.6V2.4C13 1.76348 12.7432 1.15303 12.2861 0.702944C11.829 0.252856 11.209 0 10.5625 0H5.6875ZM6.73806 5.0344C6.89043 4.88442 7.09705 4.80017 7.3125 4.80017C7.52795 4.80017 7.73457 4.88442 7.88694 5.0344L10.3244 7.4344C10.4768 7.58442 10.5623 7.78787 10.5623 8C10.5623 8.21213 10.4768 8.41558 10.3244 8.5656L7.88694 10.9656C7.7337 11.1113 7.52846 11.192 7.31542 11.1901C7.10239 11.1883 6.8986 11.1042 6.74796 10.9559C6.59732 10.8075 6.51187 10.6069 6.51002 10.3971C6.50816 10.1874 6.59006 9.98528 6.73806 9.8344L7.78863 8.8H0.8125C0.597012 8.8 0.390349 8.71571 0.237976 8.56569C0.0856026 8.41566 0 8.21217 0 8C0 7.78783 0.0856026 7.58434 0.237976 7.43431C0.390349 7.28429 0.597012 7.2 0.8125 7.2H7.78863L6.73806 6.1656C6.58574 6.01558 6.50017 5.81213 6.50017 5.6C6.50017 5.38787 6.58574 5.18442 6.73806 5.0344Z" fill="white"/>
</svg>
