<svg width="16" height="14" viewBox="0 0 16 14" fill="none"
  xmlns="http://www.w3.org/2000/svg">
  <path d="M6.39957 8.55984H9.59945V3.89083H11.9994L7.99951 0L3.99965 3.89083H6.39957V8.55984ZM15.4696 9.75199C15.3017 9.57768 14.1809 8.41121 13.8609 8.10694C13.6367 7.89785 13.338 7.78128 13.0273 7.78167H11.6218L14.0729 10.1115H11.2378C11.1993 10.1108 11.1612 10.12 11.1275 10.1382C11.0938 10.1564 11.0656 10.1829 11.0458 10.215L10.393 11.6725H5.60599L4.95322 10.215C4.93327 10.183 4.90506 10.1566 4.87138 10.1384C4.8377 10.1202 4.79972 10.111 4.76122 10.1115H1.92612L4.37644 7.78167H2.97169C2.6541 7.78167 2.35091 7.9054 2.13811 8.10694C1.81813 8.41198 0.697365 9.57846 0.529371 9.75199C0.138185 10.1574 -0.0770079 10.4804 0.0253886 10.8796L0.474173 13.2716C0.576569 13.6716 1.02695 14 1.47574 14H14.5249C14.9737 14 15.424 13.6716 15.5264 13.2716L15.9752 10.8796C16.076 10.4804 15.8616 10.1574 15.4696 9.75199Z" fill="white"/>
</svg>
