<svg width="42" height="28" viewBox="0 0 42 28" fill="none"
  xmlns="http://www.w3.org/2000/svg">
  <path d="M33.8625 10.57C33.2747 7.59101 31.6708 4.9085 29.3249 2.98068C26.9789 1.05286 24.0364 -0.000686424 21 3.35539e-07C15.9425 3.35539e-07 11.55 2.87 9.3625 7.07C6.79041 7.34796 4.41176 8.56661 2.68361 10.4918C0.955449 12.417 -0.000300478 14.9129 7.08623e-08 17.5C7.08623e-08 23.2925 4.7075 28 10.5 28H33.25C38.08 28 42 24.08 42 19.25C42 14.63 38.4125 10.885 33.8625 10.57ZM18.7425 21.5075C18.5806 21.6697 18.3883 21.7984 18.1766 21.8863C17.9649 21.9741 17.7379 22.0193 17.5088 22.0193C17.2796 22.0193 17.0526 21.9741 16.8409 21.8863C16.6292 21.7984 16.4369 21.6697 16.275 21.5075L12.6 17.85C12.438 17.688 12.3095 17.4956 12.2218 17.284C12.1341 17.0723 12.089 16.8454 12.089 16.6162C12.089 16.1535 12.2728 15.7097 12.6 15.3825C12.9272 15.0553 13.371 14.8715 13.8338 14.8715C14.2965 14.8715 14.7403 15.0553 15.0675 15.3825L17.5 17.815L25.34 9.975C25.6672 9.64779 26.111 9.46396 26.5738 9.46396C27.0365 9.46396 27.4803 9.64779 27.8075 9.975C28.1347 10.3022 28.3185 10.746 28.3185 11.2087C28.3185 11.6715 28.1347 12.1153 27.8075 12.4425L18.7425 21.5075Z" fill="#56B82C"/>
</svg>
