<svg width="23" height="23" viewBox="0 0 23 23" fill="none"
  xmlns="http://www.w3.org/2000/svg">
  <path d="M22.4266 9.79012L19.9141 9.04012C19.7403 8.4336 19.5015 7.84768 19.2016 7.29262L20.4316 4.99011C20.4777 4.9032 20.4946 4.80373 20.4798 4.70645C20.4649 4.60917 20.4191 4.51928 20.3491 4.45012L18.5566 2.65011C18.4874 2.58012 18.3975 2.53429 18.3002 2.51942C18.2029 2.50456 18.1035 2.52146 18.0166 2.56761L15.7291 3.79011C15.1685 3.47561 14.5749 3.22408 13.9591 3.04011L13.2091 0.557615C13.1773 0.466127 13.1174 0.387064 13.0379 0.331806C12.9584 0.276548 12.8634 0.247946 12.7666 0.250115H10.2316C10.1342 0.250568 10.0395 0.282091 9.96122 0.340095C9.88299 0.398099 9.8253 0.479557 9.79656 0.572615L9.04656 3.04761C8.42557 3.2306 7.82689 3.48215 7.26156 3.79761L5.01156 2.58261C4.92465 2.53646 4.82517 2.51956 4.7279 2.53442C4.63062 2.54929 4.54073 2.59512 4.47156 2.66511L2.64906 4.44261C2.57906 4.51178 2.53323 4.60167 2.51837 4.69895C2.50351 4.79623 2.52041 4.8957 2.56656 4.98262L3.78156 7.23262C3.4666 7.79556 3.21507 8.39171 3.03156 9.01012L0.549063 9.76012C0.456005 9.78885 0.374546 9.84654 0.316542 9.92478C0.258538 10.003 0.227016 10.0977 0.226562 10.1951V12.7301C0.227016 12.8275 0.258538 12.9222 0.316542 13.0005C0.374546 13.0787 0.456005 13.1364 0.549063 13.1651L3.04656 13.9151C3.23207 14.5232 3.48357 15.1092 3.79656 15.6626L2.56656 18.0176C2.52041 18.1045 2.50351 18.204 2.51837 18.3013C2.53323 18.3986 2.57906 18.4884 2.64906 18.5576L4.44156 20.3501C4.51073 20.4201 4.60062 20.4659 4.6979 20.4808C4.79517 20.4957 4.89465 20.4788 4.98156 20.4326L7.29906 19.1951C7.84729 19.4909 8.42557 19.7273 9.02406 19.9001L9.77406 22.4276C9.8028 22.5207 9.86049 22.6021 9.93872 22.6601C10.017 22.7181 10.1117 22.7497 10.2091 22.7501H12.7441C12.8415 22.7497 12.9362 22.7181 13.0144 22.6601C13.0926 22.6021 13.1503 22.5207 13.1791 22.4276L13.9291 19.8926C14.5224 19.7189 15.0957 19.4826 15.6391 19.1876L17.9716 20.4326C18.0585 20.4788 18.1579 20.4957 18.2552 20.4808C18.3525 20.4659 18.4424 20.4201 18.5116 20.3501L20.3041 18.5576C20.3741 18.4884 20.4199 18.3986 20.4348 18.3013C20.4496 18.204 20.4327 18.1045 20.3866 18.0176L19.1416 15.6926C19.4396 15.1471 19.6784 14.5714 19.8541 13.9751L22.3816 13.2251C22.4746 13.1964 22.5561 13.1387 22.6141 13.0605C22.6721 12.9822 22.7036 12.8875 22.7041 12.7901V10.2326C22.7085 10.1394 22.6843 10.047 22.6347 9.96787C22.5851 9.88877 22.5124 9.82674 22.4266 9.79012V9.79012ZM11.4991 15.6251C10.6832 15.6251 9.88569 15.3832 9.20733 14.9299C8.52898 14.4767 8.00027 13.8324 7.68806 13.0787C7.37585 12.3249 7.29416 11.4955 7.45332 10.6954C7.61249 9.8952 8.00535 9.16019 8.58225 8.5833C9.15914 8.00641 9.89414 7.61354 10.6943 7.45438C11.4945 7.29521 12.3239 7.3769 13.0776 7.68911C13.8314 8.00132 14.4756 8.53004 14.9289 9.20839C15.3821 9.88674 15.6241 10.6843 15.6241 11.5001C15.6241 12.5941 15.1895 13.6433 14.4159 14.4169C13.6423 15.1905 12.5931 15.6251 11.4991 15.6251V15.6251Z" fill="white"/>
</svg>
