<svg width="17" height="22" viewBox="0 0 17 22" fill="none"
  xmlns="http://www.w3.org/2000/svg">
  <path d="M16.773 5.51719C16.9179 5.66451 17 5.86339 17 6.0721V21.2143C17 21.6489 16.6547 22 16.2273 22H0.772727C0.345312 22 0 21.6489 0 21.2143V0.785714C0 0.351116 0.345312 0 0.772727 0H11.0283C11.2335 0 11.4315 0.0834822 11.5764 0.230804L16.773 5.51719ZM15.2179 6.43304L10.6733 1.81205V6.43304H15.2179ZM3.86364 10.2634C3.8124 10.2634 3.76326 10.2841 3.72704 10.3209C3.69081 10.3578 3.67045 10.4077 3.67045 10.4598V11.6384C3.67045 11.6905 3.69081 11.7405 3.72704 11.7773C3.76326 11.8141 3.8124 11.8348 3.86364 11.8348H13.1364C13.1876 11.8348 13.2367 11.8141 13.273 11.7773C13.3092 11.7405 13.3295 11.6905 13.3295 11.6384V10.4598C13.3295 10.4077 13.3092 10.3578 13.273 10.3209C13.2367 10.2841 13.1876 10.2634 13.1364 10.2634H3.86364ZM3.86364 13.6027C3.8124 13.6027 3.76326 13.6234 3.72704 13.6602C3.69081 13.697 3.67045 13.747 3.67045 13.7991V14.9777C3.67045 15.0298 3.69081 15.0797 3.72704 15.1166C3.76326 15.1534 3.8124 15.1741 3.86364 15.1741H8.30682C8.35805 15.1741 8.40719 15.1534 8.44342 15.1166C8.47965 15.0797 8.5 15.0298 8.5 14.9777V13.7991C8.5 13.747 8.47965 13.697 8.44342 13.6602C8.40719 13.6234 8.35805 13.6027 8.30682 13.6027H3.86364Z" fill="white"/>
</svg>
